<?xml version="1.0" standalone="no"?>
<!DOCTYPE svg PUBLIC "-//W3C//DTD SVG 20010904//EN"
 "http://www.w3.org/TR/2001/REC-SVG-20010904/DTD/svg10.dtd">
<svg version="1.0" xmlns="http://www.w3.org/2000/svg"
 width="598.000000pt" height="598.000000pt" viewBox="0 0 598.000000 598.000000"
 preserveAspectRatio="xMidYMid meet">

<g transform="translate(0.000000,598.000000) scale(0.100000,-0.100000)"
fill="#000000" stroke="none">
<path d="M0 2990 l0 -2990 2990 0 2990 0 0 2990 0 2990 -2990 0 -2990 0 0
-2990z m3325 1843 c-52 -53 -114 -142 -149 -212 -26 -51 -60 -184 -72 -276
-13 -102 -14 -99 36 -106 44 -7 44 -7 -10 -5 l-55 1 -3 65 c-6 119 50 286 140
418 32 48 150 174 156 167 2 -2 -18 -25 -43 -52z m-713 -677 c40 -8 84 -19 98
-25 l25 -12 -25 6 c-144 30 -251 30 -370 0 -77 -19 -169 -54 -191 -72 -8 -7
-19 -13 -23 -13 -32 0 -246 -199 -246 -229 0 -3 -14 -21 -30 -38 -17 -18 -31
-36 -31 -40 0 -5 -13 -35 -29 -68 -15 -33 -36 -78 -46 -100 -19 -42 -66 -209
-66 -235 0 -8 -5 -44 -10 -80 -19 -120 -18 -188 7 -445 5 -52 26 -159 35 -175
4 -8 10 -35 13 -60 3 -25 10 -58 16 -75 6 -16 22 -66 37 -110 15 -44 31 -84
36 -89 4 -6 8 -17 8 -25 0 -18 65 -160 96 -211 11 -19 24 -46 29 -59 9 -28 84
-146 113 -178 11 -12 18 -24 15 -27 -2 -2 5 -14 17 -26 11 -11 18 -25 15 -30
-3 -6 1 -7 10 -4 10 4 15 2 13 -7 -2 -8 2 -13 8 -12 7 1 11 -4 10 -11 -1 -18
111 -144 136 -152 11 -3 17 -8 14 -11 -9 -10 40 -46 111 -83 78 -39 164 -50
254 -31 51 11 328 112 648 235 80 31 146 54 148 53 4 -4 -77 -40 -217 -97
-122 -49 -148 -68 -97 -71 12 -1 -12 -5 -53 -10 -81 -8 -164 -33 -335 -100
-103 -40 -117 -43 -210 -43 -92 -1 -105 1 -165 31 -91 44 -164 105 -256 216
-284 340 -470 756 -530 1184 -21 156 -14 428 14 553 86 366 290 616 601 734
136 53 274 67 403 42z m583 -141 c-16 -8 -37 -14 -45 -15 -23 -1 0 -13 113
-61 130 -55 133 -66 4 -17 -56 22 -136 52 -177 68 l-75 29 65 -5 c36 -3 79 -1
95 5 44 14 55 12 20 -4z m837 -715 c-73 -40 -136 -112 -168 -190 -36 -87 -44
-240 -19 -362 9 -45 20 -87 24 -93 5 -5 11 -23 15 -40 4 -16 28 -68 54 -114
65 -116 65 -116 84 -134 9 -9 25 -27 35 -40 26 -34 105 -77 139 -77 16 0 53 7
82 14 28 8 50 11 47 6 -2 -4 -31 -15 -64 -24 -48 -13 -69 -15 -99 -6 -109 29
-267 256 -321 463 -55 211 -26 405 78 525 29 32 135 102 155 102 6 0 -13 -14
-42 -30z m123 -525 c49 -113 174 -259 284 -333 l59 -39 -34 -17 c-19 -9 -55
-16 -80 -16 -38 0 -51 6 -89 41 -58 53 -125 163 -160 259 -20 56 -28 99 -31
170 l-4 95 19 -60 c10 -33 26 -78 36 -100z m405 -452 l-12 -38 -103 0 -103 0
112 41 c61 23 112 41 114 39 2 -2 -2 -20 -8 -42z m-185 -73 c-3 -5 -12 -10
-18 -10 -7 0 -6 4 3 10 19 12 23 12 15 0z m-95 -34 c0 -2 -7 -7 -16 -10 -8 -3
-12 -2 -9 4 6 10 25 14 25 6z m187 -102 c-3 -3 -12 -4 -19 -1 -8 3 -5 6 6 6
11 1 17 -2 13 -5z"/>
</g>
</svg>
